<svg width="100.00000000000001" height="100.00000000000001" xmlns="http://www.w3.org/2000/svg">
 <!-- Created with SVG Editor - http://github.com/mzalive/SVG Editor/ -->

 <g>
  <title>background</title>
  <rect fill="#ffffff" id="canvas_background" height="102" width="102" y="-1" x="-1"/>
  <g display="none" overflow="visible" y="0" x="0" height="100%" width="100%" id="canvasGrid">
   <rect fill="url(#gridpattern)" stroke-width="0" y="0" x="0" height="100%" width="100%"/>
  </g>
 </g>
 <g>
  <title>Layer 1</title>
  <ellipse stroke="#000" ry="47" rx="47" id="svg_1" cy="50.897823" cx="50.273986" stroke-width="3" fill="#fff"/>
  <path d="m81.759869,6.893819c0,0 0,0 -0.294136,0c0,0 0.294136,-0.294131 0.588264,-0.588261c0,0 -0.171501,1.269126 -3.529564,5.588477c-3.975777,5.11389 -6.427551,8.478865 -6.764999,8.235649c-0.533554,-0.38456 2.058914,-2.058914 3.823692,-3.235434c0.882393,-0.588261 0.904785,-0.475702 1.176521,-0.588261c0.7686,-0.318364 3.069626,-2.48236 5.000221,-4.117825c0.634773,-0.537735 0.543953,-0.641598 -0.882393,0.588261c-4.255783,3.669527 -6.764999,6.764997 -7.941521,7.647388c0,0 0.198189,-0.41757 2.058914,-1.764782c2.247566,-1.627291 4.117821,-2.353043 4.706085,-2.647173c0,0 -0.459991,0.402292 -1.47065,1.470652c-0.728798,0.770407 -0.570732,0.605288 0,0c2.429787,-2.576909 3.235428,-3.823694 3.529564,-4.117825c0,0 0.03598,0.313542 -0.294136,0.882391c-0.532295,0.917235 -1.145462,1.339112 -0.882385,1.470652c1.315392,0.657696 3.558479,-2.91493 5.58847,-3.529564c0.281517,-0.085237 0.329887,0.024363 -0.882385,1.764782c-2.286568,3.282751 -4.117828,5.000216 -4.706085,5.588476c0,0 0.418648,-0.125961 2.058907,-1.470652c1.930092,-1.582298 2.647179,-2.058912 2.647179,-2.058912c-0.294136,0.29413 -1.968437,2.179775 -2.941307,3.529564c-0.38456,0.53355 -0.294128,0.588261 0.294128,0c1.176521,-1.176523 1.642952,-2.058912 2.058914,-2.058912c0.415962,0 0.034737,0.315536 -0.882393,1.764782c-0.567101,0.896133 -0.882385,1.176521 -0.882385,1.176521c0.294128,-0.29413 0.937096,-1.086088 1.47065,-1.470652c0.337448,-0.243217 0.338844,0.023443 -0.294128,1.176521c-0.825302,1.503433 -1.176521,1.764782 -1.176521,1.764782c0.294128,-0.29413 1.043915,-1.163334 2.058907,-1.470652c0.563026,-0.170471 0.882393,0 0.882393,0c-0.882393,1.176521 -2.058914,2.941303 -2.647171,3.823694c0,0 -0.020111,-0.021591 0.294128,-0.29413c1.111008,-0.963575 2.007072,-1.613674 2.647171,-1.764782c0.28627,-0.067579 0.250206,-0.154636 0,0c-0.559471,0.345772 -0.294128,0.882391 -0.294128,0.882391c0,0 0.087357,-0.768808 0.882393,-1.470652c0.493057,-0.435263 0.882393,-0.588261 0.882393,-0.588261c0,0 -0.08223,0.236731 -0.882393,1.470652c-1.647636,2.540794 -2.353043,4.411955 -2.647171,5.000216c0,0 -0.140533,-0.111986 0.588257,-0.882391c1.010651,-1.068361 2.466835,-2.034678 3.235435,-2.353043c0.271736,-0.112558 0.181572,-0.02239 0.294128,-0.29413c0.318367,-0.768602 1.47065,-1.47065 1.764786,-1.764782c0.294128,-0.294128 0.040222,-0.25095 -0.588264,0.29413c-1.111008,0.963572 -2.353043,1.764786 -2.941299,2.353043c-0.294136,0.294132 -0.309952,0.277416 0,0c1.403343,-1.256041 2.647171,-2.058912 3.235428,-2.058912c0.294136,0 0.490616,0.067461 0,1.176521c-0.429031,0.969841 -0.882385,1.470652 -0.882385,1.764782c0,0 0,-0.588261 0.588257,-1.176521c0.294128,-0.29413 -0.083328,0.237085 -1.47065,2.353043c-0.940376,1.434269 -1.176521,2.058912 -1.176521,2.058912c0.294128,-0.588261 2.126228,-1.979383 3.529564,-3.235434c0.619888,-0.554829 0.588257,-0.588261 0.588257,-0.588261c-0.294128,0.588261 -3.130302,3.372944 -5.294342,6.176739c-0.647972,0.839525 -0.698883,0.812529 -0.294128,0.29413c1.668846,-2.137407 3.985214,-4.104641 5.000214,-4.411957c0.281509,-0.085234 0.366096,0.038828 -0.294128,1.176521c-1.064583,1.834478 -1.764786,2.647175 -1.764786,2.647175c0,0 0.787498,-1.57095 2.647171,-3.235435c1.403343,-1.25605 1.764786,-1.470652 1.764786,-1.470652c-1.764786,2.647173 -2.978622,5.181738 -4.706085,7.353258c-0.258957,0.325523 -0.435959,-0.125671 0.882393,-1.47065c1.608063,-1.640547 2.353043,-2.058914 2.647171,-2.353045c0,0 -0.294128,0.29413 -0.294128,0.882391c0,0 -0.18602,-0.030188 0,-0.588261c0.465057,-1.39518 1.176521,-1.764782 1.176521,-1.764782c0,0.29413 0.158012,0.639492 -0.294136,1.764782c-0.884132,2.200375 -2.353043,4.117825 -2.647171,5.000217c0,0 -0.126625,-0.03912 0.294128,-1.176521c1.140923,-3.084215 2.941307,-5.294352 3.529564,-5.882608c0.294136,-0.294132 0.294136,0 0.294136,0c-0.882393,1.764782 -2.641769,4.621378 -2.941307,6.176737c-0.055626,0.288826 -0.081184,0.228622 0.882393,-0.882389c1.635239,-1.885445 3.235435,-2.941305 3.823692,-3.235435c0,0 -0.358994,0.244507 -1.47065,1.764784c-0.625969,0.856058 -0.882393,1.176519 -0.882393,1.176519c0.294128,-0.294128 0.50708,-1.242035 1.47065,-2.353043c0.545082,-0.628485 0.630692,-0.56506 0.294136,0c-1.837242,3.084629 -3.8237,6.176739 -4.411957,7.059128c0,0 0.056435,-0.486629 1.764778,-2.353043c1.830917,-2.000328 3.235435,-2.647171 3.235435,-2.647171c-0.294128,0.294128 -1.683594,1.830292 -2.647171,2.941303c-0.272537,0.31424 -0.294128,0 0,-0.294132c0.882385,-0.882393 1.176521,-1.176521 1.47065,-1.176521c0,0 -0.415176,0.707092 -1.47065,2.058914c-0.255989,0.327862 -0.294128,0.294128 0,-0.588261l1.764778,-2.058914l0.882393,-1.176521l0.588264,-0.294128" id="svg_8" stroke-width="3" stroke="#ffffff" fill="none"/>
  <path d="m86.325096,19.835554c0,0 0,0 -0.294136,0c-0.294128,0 -0.391983,-0.221518 -0.588257,-0.588261c-0.70768,-1.322315 -0.882393,-2.941303 -1.176521,-3.529564c0,0 0.294128,0 0.588257,0l0,0l0.294136,0.29413" id="svg_9" stroke-width="3" stroke="#ffffff" fill="none"/>
  <polyline stroke-linecap="round" id="svg_10" points="81.91313801658954,37.77750540162014 81.91313801658954,37.77750540162014 " stroke-width="3" stroke="#ffffff" fill="none"/>
  <path d="m80.148354,23.953379c0,0 0,0 0,-0.29413c0,0 0.022392,0.112562 0.294136,0c1.152893,-0.477547 2.034874,-1.797766 3.235428,-2.647173c0.86573,-0.612516 1.499451,-0.830751 2.058914,-1.176521c1.251007,-0.773169 2.353043,-1.47065 2.941307,-2.058912c0.294128,-0.29413 0.294128,-0.29413 0.294128,-0.29413c0,0 0,-0.29413 0,-0.29413c0.294128,-0.588261 1.176521,-0.882385 0.882393,-1.176521c-0.294128,-0.294136 -0.536423,0.731283 -1.176521,0.882391c-0.28627,0.067579 -0.76799,-0.021158 -1.470657,0.588261c-0.496857,0.430923 -0.847534,0.938358 -1.764778,1.470652c-0.568848,0.330116 -1.47065,0.882391 -2.353043,1.764782l-0.294128,0.29413l0,0" id="svg_11" stroke-width="3" stroke="#ffffff" fill="none"/>
  <ellipse ry="0.999999" rx="1.263156" id="svg_12" cy="7.600084" cx="81.33248" stroke-width="3" stroke="#ffffff" fill="#ffffff"/>
  <ellipse ry="1.526314" rx="0.999999" id="svg_13" cy="35.105216" cx="93.999942" stroke-width="3" stroke="#ffffff" fill="#ffffff"/>
  <ellipse id="svg_15" cy="28.795644" cx="90.663304" fill-opacity="null" stroke-opacity="null" stroke-width="3" stroke="#000" fill="#fff"/>
  <ellipse stroke="#000" transform="rotate(150 92.92696380615233,32.28872680664062) " rx="0.795564" ry="1.807178" id="svg_16" cy="32.288727" cx="92.926956" fill-opacity="null" stroke-opacity="null" stroke-width="3" fill="#fff"/>
  <ellipse id="svg_17" cy="27.590806" cx="102.350239" fill-opacity="null" stroke-opacity="null" stroke-width="3" stroke="#000" fill="#fff"/>
  <ellipse stroke="#000" transform="rotate(150 92.92696380615233,32.28872680664062) " rx="0.795564" ry="1.807178" id="svg_18" cy="32.288727" cx="92.926956" fill-opacity="null" stroke-opacity="null" stroke-width="3" fill="#fff"/>
 </g>
</svg>