<svg id="visual" viewBox="0 0 960 540" width="960" height="540" xmlns="http://www.w3.org/2000/svg" xmlns:xlink="http://www.w3.org/1999/xlink" version="1.1"><rect x="0" y="0" width="960" height="540" fill="#002234"></rect><path d="M0 276L120 316L240 362L360 438L480 279L600 280L720 393L840 391L960 367L960 541L840 541L720 541L600 541L480 541L360 541L240 541L120 541L0 541Z" fill="#002d46"></path><path d="M0 403L120 432L240 437L360 374L480 441L600 376L720 412L840 393L960 403L960 541L840 541L720 541L600 541L480 541L360 541L240 541L120 541L0 541Z" fill="#fffafa"></path></svg>