<svg id="visual" viewBox="0 0 960 540" width="960" height="540" xmlns="http://www.w3.org/2000/svg" xmlns:xlink="http://www.w3.org/1999/xlink" version="1.1"><rect x="0" y="0" width="960" height="540" fill="#002233"></rect><path d="M0 369L17.8 377.7C35.7 386.3 71.3 403.7 106.8 407.8C142.3 412 177.7 403 213.2 385.5C248.7 368 284.3 342 320 338.2C355.7 334.3 391.3 352.7 426.8 371.2C462.3 389.7 497.7 408.3 533.2 401.2C568.7 394 604.3 361 640 355.2C675.7 349.3 711.3 370.7 746.8 375C782.3 379.3 817.7 366.7 853.2 366.7C888.7 366.7 924.3 379.3 942.2 385.7L960 392L960 541L942.2 541C924.3 541 888.7 541 853.2 541C817.7 541 782.3 541 746.8 541C711.3 541 675.7 541 640 541C604.3 541 568.7 541 533.2 541C497.7 541 462.3 541 426.8 541C391.3 541 355.7 541 320 541C284.3 541 248.7 541 213.2 541C177.7 541 142.3 541 106.8 541C71.3 541 35.7 541 17.8 541L0 541Z" fill="#fffafa" stroke-linecap="round" stroke-linejoin="miter"></path></svg>